<svg width="48" height="48" viewBox="0 0 48 48" fill="none" xmlns="http://www.w3.org/2000/svg">
<path d="M34.8886 27.1478C36.2788 24.5175 37.0289 21.5772 37.0289 18.5069C37.0289 13.5664 35.0986 8.91591 31.6083 5.41554C24.3876 -1.80518 12.6363 -1.80518 5.41554 5.41554C-1.80518 12.6363 -1.80518 24.3876 5.41554 31.6083C9.02597 35.2186 13.7665 37.0188 18.5069 37.0188C21.4872 37.0188 24.4576 36.3088 27.1578 34.8886L35.4587 43.1895L43.1895 35.4487L34.8886 27.1478ZM6.83573 30.1881C0.395061 23.7475 0.395061 13.2763 6.83573 6.83567C10.056 3.61537 14.2765 2.00521 18.5069 2.00521C22.7374 2.00521 26.9678 3.61537 30.1881 6.83567C33.3085 9.94604 35.0287 14.0964 35.0287 18.5069C35.0287 22.9274 33.3085 27.0778 30.1881 30.1881C23.7475 36.6288 13.2764 36.6288 6.83573 30.1881ZM46.3999 38.659L44.5996 36.8588L36.8688 44.5996L38.669 46.3998C39.7291 47.4599 41.1293 48 42.5295 48C43.9296 48 45.3297 47.4599 46.3999 46.3998C48.5301 44.2696 48.5301 40.7892 46.3999 38.659Z" fill="white"/>
</svg>
