<svg width="15" height="17" viewBox="0 0 15 17" fill="none" xmlns="http://www.w3.org/2000/svg">
<path d="M8.64101 0.895534C6.89978 1.55558 5.32124 2.58107 3.94496 3.9466C0.745365 7.15645 -0.628471 11.7362 0.269994 16.1968C0.365752 16.6722 0.783473 17 1.25005 17C1.31552 17 1.38196 16.9936 1.44841 16.9805C1.99022 16.871 2.34101 16.3434 2.23206 15.802C1.46551 11.9981 2.63561 8.09449 5.35837 5.36343C6.53043 4.20017 7.87348 3.32662 9.35041 2.76673C9.8673 2.57081 10.1272 1.99333 9.93131 1.47643C9.73588 0.959536 9.15742 0.699621 8.64101 0.895534ZM13.3781 0C13.2648 0 13.1333 0.00537415 13.0195 0.0244281C12.4748 0.117743 12.0907 0.636596 12.1836 1.18134C12.2671 1.66942 12.6765 2.01629 13.1524 2.01629C13.2076 2.01629 13.2638 2.01141 13.3205 2.00164L13.3781 2.00115C13.9307 2.00115 14.3787 1.55314 14.3787 1.00057C14.3787 0.448011 13.9307 0 13.3781 0Z" fill="white"/>
</svg>
